<svg width="35" height="39" viewBox="0 0 35 39" fill="none" xmlns="http://www.w3.org/2000/svg">
<circle cx="17.5" cy="21.5" r="17" stroke="black"/>
<path d="M9.39085 32.5621L8.50365 33.7716L8.50365 33.7716L9.39085 32.5621ZM26.1332 10.6376L26.9652 9.38952L26.9652 9.38952L26.1332 10.6376ZM25.9268 10.5L25.0948 11.7481L25.0948 11.7481L25.9268 10.5ZM26.4257 32.2056L27.3627 33.3769L27.3627 33.3769L26.4257 32.2056ZM27.0952 31.67L26.1581 30.4987L26.1581 30.4987L27.0952 31.67ZM9.20849 12.1558L8.14778 11.0952L9.20849 12.1558ZM4.08974 15.7749C4.08978 16.6034 4.76138 17.2749 5.58981 17.2749L19.0898 17.2743C19.9182 17.2742 20.5898 16.6026 20.5897 15.7742C20.5897 14.9458 19.9181 14.2742 19.0897 14.2743L7.08968 14.2748L7.08915 2.2748C7.08912 1.44638 6.41752 0.774833 5.58909 0.774868C4.76066 0.774904 4.08912 1.44651 4.08915 2.27493L4.08974 15.7749ZM31.3016 25.6376L29.8785 25.1632L29.8785 25.1632L31.3016 25.6376ZM31.4358 17.8537L29.9968 18.277L29.9968 18.277L31.4358 17.8537ZM18.5773 8.27481L18.5773 6.77481L18.5773 6.77481L18.5773 8.27481ZM17.6756 35.2749L17.6756 36.7749L17.6756 36.7749L17.6756 35.2749ZM4.70254 30.9834L8.50365 33.7716L10.2781 31.3526L6.47694 28.5644L4.70254 30.9834ZM26.9652 9.38952L26.7589 9.25195L25.0948 11.7481L25.3011 11.8857L26.9652 9.38952ZM27.3627 33.3769L28.0322 32.8413L26.1581 30.4987L25.4886 31.0343L27.3627 33.3769ZM8.14778 11.0952L4.52903 14.7143L6.65045 16.8355L10.2692 13.2164L8.14778 11.0952ZM32.7246 26.1119C33.6603 23.3049 33.7087 20.2655 32.8749 17.4305L29.9968 18.277C30.6588 20.528 30.6193 22.9408 29.8785 25.1632L32.7246 26.1119ZM18.5773 6.77481C14.6654 6.77485 10.9138 8.32895 8.14778 11.0952L10.2692 13.2164C12.4726 11.0128 15.4611 9.77484 18.5773 9.77481L18.5773 6.77481ZM17.6756 36.7749C21.1968 36.7749 24.6131 35.5765 27.3627 33.3769L25.4886 31.0343C23.271 32.8084 20.5156 33.7749 17.6756 33.7749L17.6756 36.7749ZM25.3011 11.8857C27.5621 13.393 29.2288 15.6658 29.9968 18.277L32.8749 17.4305C31.9095 14.1482 29.8155 11.2897 26.9652 9.38952L25.3011 11.8857ZM26.7589 9.25195C24.336 7.6367 21.4892 6.77478 18.5773 6.77481L18.5773 9.77481C20.897 9.77478 23.1647 10.4614 25.0948 11.7481L26.7589 9.25195ZM8.50365 33.7716C11.1637 35.7228 14.3767 36.7749 17.6756 36.7749L17.6756 33.7749C15.0149 33.7749 12.4235 32.9264 10.2781 31.3526L8.50365 33.7716ZM28.0322 32.8413C30.2122 31.0973 31.8417 28.7604 32.7246 26.1119L29.8785 25.1632C29.1786 27.2631 27.8866 29.116 26.1581 30.4987L28.0322 32.8413Z" fill="#4A4A4A"/>
</svg>
