<svg width="35" height="35" viewBox="0 0 35 35" fill="none" xmlns="http://www.w3.org/2000/svg">
<path d="M17.5 35C7.85038 35 0 27.1496 0 17.5C0 7.85038 7.85038 0 17.5 0C27.1496 0 35 7.85038 35 17.5C35 27.1496 27.1496 35 17.5 35ZM17.5 2.49992C9.22905 2.49992 2.49992 9.22905 2.49992 17.5C2.49992 25.771 9.22905 32.5001 17.5 32.5001C25.771 32.5001 32.5001 25.771 32.5001 17.5C32.5001 9.22905 25.771 2.49992 17.5 2.49992Z" fill="black"/>
<path d="M23.75 24.9999C23.4301 24.9999 23.1102 24.8779 22.8662 24.6335L10.3663 12.1337C9.8779 11.6453 9.8779 10.8543 10.3663 10.3662C10.8544 9.87807 11.6456 9.8778 12.1338 10.3662L24.6336 22.8661C25.122 23.3545 25.122 24.1454 24.6336 24.6335C24.3896 24.8779 24.0699 24.9999 23.75 24.9999Z" fill="black"/>
<path d="M11.2499 25C10.93 25 10.6104 24.878 10.3663 24.6337C9.8779 24.1455 9.8779 23.3543 10.3663 22.8662L22.8662 10.3663C23.3546 9.8779 24.1455 9.8779 24.6336 10.3663C25.1218 10.8544 25.122 11.6456 24.6336 12.1338L12.1338 24.6337C11.8897 24.878 11.5698 25 11.2499 25Z" fill="black"/>
</svg>
