<svg width="240" height="52" viewBox="0 0 240 52" fill="none" xmlns="http://www.w3.org/2000/svg">
<rect width="240" height="52" rx="10" fill="#5CA8EF"/>
<path d="M51.6445 29.6055C51.6445 28.8555 51.3789 28.2773 50.8477 27.8711C50.3242 27.4648 49.375 27.0547 48 26.6406C46.625 26.2266 45.5312 25.7656 44.7188 25.2578C43.1641 24.2812 42.3867 23.0078 42.3867 21.4375C42.3867 20.0625 42.9453 18.9297 44.0625 18.0391C45.1875 17.1484 46.6445 16.7031 48.4336 16.7031C49.6211 16.7031 50.6797 16.9219 51.6094 17.3594C52.5391 17.7969 53.2695 18.4219 53.8008 19.2344C54.332 20.0391 54.5977 20.9336 54.5977 21.918H51.6445C51.6445 21.0273 51.3633 20.332 50.8008 19.832C50.2461 19.3242 49.4492 19.0703 48.4102 19.0703C47.4414 19.0703 46.6875 19.2773 46.1484 19.6914C45.6172 20.1055 45.3516 20.6836 45.3516 21.4258C45.3516 22.0508 45.6406 22.5742 46.2188 22.9961C46.7969 23.4102 47.75 23.8164 49.0781 24.2148C50.4062 24.6055 51.4727 25.0547 52.2773 25.5625C53.082 26.0625 53.6719 26.6406 54.0469 27.2969C54.4219 27.9453 54.6094 28.707 54.6094 29.582C54.6094 31.0039 54.0625 32.1367 52.9688 32.9805C51.8828 33.8164 50.4062 34.2344 48.5391 34.2344C47.3047 34.2344 46.168 34.0078 45.1289 33.5547C44.0977 33.0938 43.293 32.4609 42.7148 31.6562C42.1445 30.8516 41.8594 29.9141 41.8594 28.8438H44.8242C44.8242 29.8125 45.1445 30.5625 45.7852 31.0938C46.4258 31.625 47.3438 31.8906 48.5391 31.8906C49.5703 31.8906 50.3438 31.6836 50.8594 31.2695C51.3828 30.8477 51.6445 30.293 51.6445 29.6055ZM60.5039 18.2383V21.3203H62.7422V23.4297H60.5039V30.5078C60.5039 30.9922 60.5977 31.3438 60.7852 31.5625C60.9805 31.7734 61.3242 31.8789 61.8164 31.8789C62.1445 31.8789 62.4766 31.8398 62.8125 31.7617V33.9648C62.1641 34.1445 61.5391 34.2344 60.9375 34.2344C58.75 34.2344 57.6562 33.0273 57.6562 30.6133V23.4297H55.5703V21.3203H57.6562V18.2383H60.5039ZM72.5039 34C72.3789 33.7578 72.2695 33.3633 72.1758 32.8164C71.2695 33.7617 70.1602 34.2344 68.8477 34.2344C67.5742 34.2344 66.5352 33.8711 65.7305 33.1445C64.9258 32.418 64.5234 31.5195 64.5234 30.4492C64.5234 29.0977 65.0234 28.0625 66.0234 27.3438C67.0312 26.6172 68.4688 26.2539 70.3359 26.2539H72.082V25.4219C72.082 24.7656 71.8984 24.2422 71.5312 23.8516C71.1641 23.4531 70.6055 23.2539 69.8555 23.2539C69.207 23.2539 68.6758 23.418 68.2617 23.7461C67.8477 24.0664 67.6406 24.4766 67.6406 24.9766H64.793C64.793 24.2812 65.0234 23.6328 65.4844 23.0312C65.9453 22.4219 66.5703 21.9453 67.3594 21.6016C68.1562 21.2578 69.043 21.0859 70.0195 21.0859C71.5039 21.0859 72.6875 21.4609 73.5703 22.2109C74.4531 22.9531 74.9062 24 74.9297 25.3516V31.0703C74.9297 32.2109 75.0898 33.1211 75.4102 33.8008V34H72.5039ZM69.375 31.9492C69.9375 31.9492 70.4648 31.8125 70.957 31.5391C71.457 31.2656 71.832 30.8984 72.082 30.4375V28.0469H70.5469C69.4922 28.0469 68.6992 28.2305 68.168 28.5977C67.6367 28.9648 67.3711 29.4844 67.3711 30.1562C67.3711 30.7031 67.5508 31.1406 67.9102 31.4688C68.2773 31.7891 68.7656 31.9492 69.375 31.9492ZM84.5508 23.9219C84.1758 23.8594 83.7891 23.8281 83.3906 23.8281C82.0859 23.8281 81.207 24.3281 80.7539 25.3281V34H77.9062V21.3203H80.625L80.6953 22.7383C81.3828 21.6367 82.3359 21.0859 83.5547 21.0859C83.9609 21.0859 84.2969 21.1406 84.5625 21.25L84.5508 23.9219ZM90.5039 18.2383V21.3203H92.7422V23.4297H90.5039V30.5078C90.5039 30.9922 90.5977 31.3438 90.7852 31.5625C90.9805 31.7734 91.3242 31.8789 91.8164 31.8789C92.1445 31.8789 92.4766 31.8398 92.8125 31.7617V33.9648C92.1641 34.1445 91.5391 34.2344 90.9375 34.2344C88.75 34.2344 87.6562 33.0273 87.6562 30.6133V23.4297H85.5703V21.3203H87.6562V18.2383H90.5039ZM108.012 30.5547C108.012 30.0469 107.801 29.6602 107.379 29.3945C106.965 29.1289 106.273 28.8945 105.305 28.6914C104.336 28.4883 103.527 28.2305 102.879 27.918C101.457 27.2305 100.746 26.2344 100.746 24.9297C100.746 23.8359 101.207 22.9219 102.129 22.1875C103.051 21.4531 104.223 21.0859 105.645 21.0859C107.16 21.0859 108.383 21.4609 109.312 22.2109C110.25 22.9609 110.719 23.9336 110.719 25.1289H107.871C107.871 24.582 107.668 24.1289 107.262 23.7695C106.855 23.4023 106.316 23.2188 105.645 23.2188C105.02 23.2188 104.508 23.3633 104.109 23.6523C103.719 23.9414 103.523 24.3281 103.523 24.8125C103.523 25.25 103.707 25.5898 104.074 25.832C104.441 26.0742 105.184 26.3203 106.301 26.5703C107.418 26.8125 108.293 27.1055 108.926 27.4492C109.566 27.7852 110.039 28.1914 110.344 28.668C110.656 29.1445 110.812 29.7227 110.812 30.4023C110.812 31.543 110.34 32.4688 109.395 33.1797C108.449 33.8828 107.211 34.2344 105.68 34.2344C104.641 34.2344 103.715 34.0469 102.902 33.6719C102.09 33.2969 101.457 32.7812 101.004 32.125C100.551 31.4688 100.324 30.7617 100.324 30.0039H103.09C103.129 30.6758 103.383 31.1953 103.852 31.5625C104.32 31.9219 104.941 32.1016 105.715 32.1016C106.465 32.1016 107.035 31.9609 107.426 31.6797C107.816 31.3906 108.012 31.0156 108.012 30.5547ZM116.109 22.7031C117.039 21.625 118.215 21.0859 119.637 21.0859C122.34 21.0859 123.711 22.6289 123.75 25.7148V34H120.902V25.8203C120.902 24.9453 120.711 24.3281 120.328 23.9688C119.953 23.6016 119.398 23.418 118.664 23.418C117.523 23.418 116.672 23.9258 116.109 24.9414V34H113.262V16H116.109V22.7031ZM126.105 27.543C126.105 26.3008 126.352 25.1836 126.844 24.1914C127.336 23.1914 128.027 22.4258 128.918 21.8945C129.809 21.3555 130.832 21.0859 131.988 21.0859C133.699 21.0859 135.086 21.6367 136.148 22.7383C137.219 23.8398 137.797 25.3008 137.883 27.1211L137.895 27.7891C137.895 29.0391 137.652 30.1562 137.168 31.1406C136.691 32.125 136.004 32.8867 135.105 33.4258C134.215 33.9648 133.184 34.2344 132.012 34.2344C130.223 34.2344 128.789 33.6406 127.711 32.4531C126.641 31.2578 126.105 29.668 126.105 27.6836V27.543ZM128.953 27.7891C128.953 29.0938 129.223 30.1172 129.762 30.8594C130.301 31.5938 131.051 31.9609 132.012 31.9609C132.973 31.9609 133.719 31.5859 134.25 30.8359C134.789 30.0859 135.059 28.9883 135.059 27.543C135.059 26.2617 134.781 25.2461 134.227 24.4961C133.68 23.7461 132.934 23.3711 131.988 23.3711C131.059 23.3711 130.32 23.7422 129.773 24.4844C129.227 25.2188 128.953 26.3203 128.953 27.7891ZM151.406 27.7891C151.406 29.75 150.961 31.3164 150.07 32.4883C149.18 33.6523 147.984 34.2344 146.484 34.2344C145.094 34.2344 143.98 33.7773 143.145 32.8633V38.875H140.297V21.3203H142.922L143.039 22.6094C143.875 21.5938 145.012 21.0859 146.449 21.0859C147.996 21.0859 149.207 21.6641 150.082 22.8203C150.965 23.9688 151.406 25.5664 151.406 27.6133V27.7891ZM148.57 27.543C148.57 26.2773 148.316 25.2734 147.809 24.5312C147.309 23.7891 146.59 23.418 145.652 23.418C144.488 23.418 143.652 23.8984 143.145 24.8594V30.4844C143.66 31.4688 144.504 31.9609 145.676 31.9609C146.582 31.9609 147.289 31.5977 147.797 30.8711C148.312 30.1367 148.57 29.0273 148.57 27.543ZM164.93 27.7891C164.93 29.75 164.484 31.3164 163.594 32.4883C162.703 33.6523 161.508 34.2344 160.008 34.2344C158.617 34.2344 157.504 33.7773 156.668 32.8633V38.875H153.82V21.3203H156.445L156.562 22.6094C157.398 21.5938 158.535 21.0859 159.973 21.0859C161.52 21.0859 162.73 21.6641 163.605 22.8203C164.488 23.9688 164.93 25.5664 164.93 27.6133V27.7891ZM162.094 27.543C162.094 26.2773 161.84 25.2734 161.332 24.5312C160.832 23.7891 160.113 23.418 159.176 23.418C158.012 23.418 157.176 23.8984 156.668 24.8594V30.4844C157.184 31.4688 158.027 31.9609 159.199 31.9609C160.105 31.9609 160.812 31.5977 161.32 30.8711C161.836 30.1367 162.094 29.0273 162.094 27.543ZM170.379 34H167.531V21.3203H170.379V34ZM167.355 18.0273C167.355 17.5898 167.492 17.2266 167.766 16.9375C168.047 16.6484 168.445 16.5039 168.961 16.5039C169.477 16.5039 169.875 16.6484 170.156 16.9375C170.438 17.2266 170.578 17.5898 170.578 18.0273C170.578 18.457 170.438 18.8164 170.156 19.1055C169.875 19.3867 169.477 19.5273 168.961 19.5273C168.445 19.5273 168.047 19.3867 167.766 19.1055C167.492 18.8164 167.355 18.457 167.355 18.0273ZM176.133 21.3203L176.215 22.7852C177.152 21.6523 178.383 21.0859 179.906 21.0859C182.547 21.0859 183.891 22.5977 183.938 25.6211V34H181.09V25.7852C181.09 24.9805 180.914 24.3867 180.562 24.0039C180.219 23.6133 179.652 23.418 178.863 23.418C177.715 23.418 176.859 23.9375 176.297 24.9766V34H173.449V21.3203H176.133ZM186.352 27.5664C186.352 25.5977 186.812 24.0273 187.734 22.8555C188.664 21.6758 189.895 21.0859 191.426 21.0859C192.871 21.0859 194.008 21.5898 194.836 22.5977L194.965 21.3203H197.531V33.6133C197.531 35.2773 197.012 36.5898 195.973 37.5508C194.941 38.5117 193.547 38.9922 191.789 38.9922C190.859 38.9922 189.949 38.7969 189.059 38.4062C188.176 38.0234 187.504 37.5195 187.043 36.8945L188.391 35.1836C189.266 36.2227 190.344 36.7422 191.625 36.7422C192.57 36.7422 193.316 36.4844 193.863 35.9688C194.41 35.4609 194.684 34.7109 194.684 33.7188V32.8633C193.863 33.7773 192.77 34.2344 191.402 34.2344C189.918 34.2344 188.703 33.6445 187.758 32.4648C186.82 31.2852 186.352 29.6523 186.352 27.5664ZM189.188 27.8125C189.188 29.0859 189.445 30.0898 189.961 30.8242C190.484 31.5508 191.207 31.9141 192.129 31.9141C193.277 31.9141 194.129 31.4219 194.684 30.4375V24.8594C194.145 23.8984 193.301 23.418 192.152 23.418C191.215 23.418 190.484 23.7891 189.961 24.5312C189.445 25.2734 189.188 26.3672 189.188 27.8125Z" fill="white"/>
</svg>
