<svg width="17" height="22" viewBox="0 0 17 22" fill="none" xmlns="http://www.w3.org/2000/svg">
<path d="M5.72126 5.01068L7.09775 3.63426V14.5481C7.09775 15.136 7.57436 15.6126 8.16226 15.6126C8.75016 15.6126 9.22678 15.136 9.22678 14.5481V3.63433L10.6031 5.01068C10.811 5.21854 11.0834 5.32251 11.3558 5.32251C11.6283 5.32251 11.9007 5.21861 12.1085 5.01068C12.5242 4.59495 12.5242 3.92097 12.1085 3.50524L8.91516 0.311832C8.89018 0.286922 8.86399 0.263361 8.83681 0.241077C8.82503 0.231426 8.81261 0.223052 8.80062 0.214039C8.78486 0.202187 8.76946 0.190123 8.75307 0.179123C8.73838 0.169258 8.72312 0.160742 8.708 0.151729C8.69331 0.142858 8.67891 0.133632 8.66372 0.125542C8.64832 0.11731 8.63256 0.110355 8.61681 0.102974C8.60098 0.0954516 8.58551 0.0876451 8.56926 0.0809032C8.55407 0.0745871 8.5386 0.0695484 8.5232 0.0640129C8.50589 0.0577677 8.48878 0.0510968 8.47097 0.0457742C8.45564 0.0411613 8.4401 0.0377548 8.4247 0.0338516C8.40653 0.0292387 8.38851 0.024129 8.36998 0.0205097C8.35224 0.0170323 8.33429 0.0149742 8.3164 0.0123484C8.29994 0.0100064 8.28376 0.00688387 8.26708 0.00525161C8.23429 0.00205806 8.20144 0.000496774 8.16851 0.000283871C8.16638 0.000283871 8.16432 0 8.16219 0C8.16013 0 8.158 0.000283871 8.15594 0.000283871C8.12302 0.000425806 8.09009 0.00205806 8.05723 0.00525161C8.04091 0.00688387 8.02508 0.00993548 8.00897 0.0122064C7.99066 0.0148323 7.97235 0.0169613 7.95426 0.0205806C7.93623 0.024129 7.91877 0.0290968 7.9011 0.0335677C7.88506 0.0376129 7.86902 0.0410903 7.85313 0.0458451C7.83602 0.0510258 7.81934 0.0574839 7.8026 0.0635161C7.78663 0.0692645 7.77052 0.0745161 7.75476 0.0810451C7.73915 0.0875032 7.72425 0.0950967 7.70906 0.102264C7.69274 0.109929 7.67627 0.117239 7.66024 0.125755C7.64576 0.13349 7.63213 0.14229 7.61801 0.150735C7.60218 0.160103 7.58629 0.169045 7.57089 0.179335C7.55549 0.189626 7.54108 0.201123 7.52625 0.212122C7.51319 0.221845 7.49992 0.230858 7.48729 0.24129C7.46138 0.26251 7.43662 0.285006 7.41284 0.308497C7.41171 0.309632 7.4105 0.310555 7.40929 0.31169L4.21561 3.50524C3.79988 3.92097 3.79988 4.59495 4.21561 5.01068C4.63155 5.4264 5.3056 5.42626 5.72126 5.01068Z" fill="black"/>
<path d="M15.259 7.09668H12.4203C11.8324 7.09668 11.3558 7.5733 11.3558 8.1612C11.3558 8.74909 11.8324 9.22571 12.4203 9.22571H14.1945V19.8709H2.13001V9.22571H3.9042C4.4921 9.22571 4.96872 8.74909 4.96872 8.1612C4.96872 7.5733 4.4921 7.09668 3.9042 7.09668H1.06549C0.477596 7.09668 0.000976562 7.5733 0.000976562 8.1612V20.9354C0.000976562 21.5233 0.477596 21.9999 1.06549 21.9999H15.259C15.8469 21.9999 16.3236 21.5233 16.3236 20.9354V8.1612C16.3236 7.5733 15.8469 7.09668 15.259 7.09668Z" fill="black"/>
</svg>
