<svg width="369" height="12" viewBox="0 0 369 12" fill="none" xmlns="http://www.w3.org/2000/svg">
<path d="M8.95508 6.2832C8.95508 7.25846 8.78646 8.11523 8.44922 8.85352C8.11198 9.58724 7.62891 10.1523 7 10.5488C6.37565 10.9408 5.6556 11.1367 4.83984 11.1367C4.0332 11.1367 3.31315 10.9408 2.67969 10.5488C2.05078 10.1523 1.56315 9.58952 1.2168 8.86035C0.875 8.13118 0.701823 7.29036 0.697266 6.33789V5.77734C0.697266 4.80664 0.868164 3.94987 1.20996 3.20703C1.55632 2.46419 2.04167 1.89681 2.66602 1.50488C3.29492 1.1084 4.01497 0.910156 4.82617 0.910156C5.63737 0.910156 6.35514 1.10612 6.97949 1.49805C7.6084 1.88542 8.09375 2.44596 8.43555 3.17969C8.77734 3.90885 8.95052 4.75879 8.95508 5.72949V6.2832ZM7.22559 5.76367C7.22559 4.66081 7.01595 3.81543 6.59668 3.22754C6.18197 2.63965 5.5918 2.3457 4.82617 2.3457C4.07878 2.3457 3.49316 2.63965 3.06934 3.22754C2.65007 3.81087 2.43587 4.63802 2.42676 5.70898V6.2832C2.42676 7.37695 2.63867 8.22233 3.0625 8.81934C3.49089 9.41634 4.08333 9.71484 4.83984 9.71484C5.60547 9.71484 6.19336 9.42318 6.60352 8.83984C7.01823 8.25651 7.22559 7.4043 7.22559 6.2832V5.76367ZM12.5986 1.80566V3.60352H13.9043V4.83398H12.5986V8.96289C12.5986 9.24544 12.6533 9.45052 12.7627 9.57812C12.8766 9.70117 13.0771 9.7627 13.3643 9.7627C13.5557 9.7627 13.7493 9.73991 13.9453 9.69434V10.9795C13.5671 11.0843 13.2025 11.1367 12.8516 11.1367C11.5755 11.1367 10.9375 10.4326 10.9375 9.02441V4.83398H9.7207V3.60352H10.9375V1.80566H12.5986ZM16.8164 4.41016C17.3587 3.78125 18.0446 3.4668 18.874 3.4668C20.4508 3.4668 21.2507 4.36686 21.2734 6.16699V11H19.6123V6.22852C19.6123 5.7181 19.5007 5.35807 19.2773 5.14844C19.0586 4.93424 18.735 4.82715 18.3066 4.82715C17.6413 4.82715 17.1445 5.12337 16.8164 5.71582V11H15.1553V0.5H16.8164V4.41016ZM26.2158 11.1367C25.1631 11.1367 24.3086 10.8063 23.6523 10.1455C23.0007 9.48014 22.6748 8.59603 22.6748 7.49316V7.28809C22.6748 6.5498 22.8161 5.89128 23.0986 5.3125C23.3857 4.72917 23.7868 4.27572 24.3018 3.95215C24.8167 3.62858 25.391 3.4668 26.0244 3.4668C27.0316 3.4668 27.8086 3.78809 28.3555 4.43066C28.9069 5.07324 29.1826 5.98242 29.1826 7.1582V7.82812H24.3496C24.3997 8.4388 24.6025 8.92188 24.958 9.27734C25.318 9.63281 25.7692 9.81055 26.3115 9.81055C27.0726 9.81055 27.6924 9.50293 28.1709 8.8877L29.0664 9.74219C28.7702 10.1842 28.3737 10.5283 27.877 10.7744C27.3848 11.016 26.8311 11.1367 26.2158 11.1367ZM26.0176 4.7998C25.5618 4.7998 25.1927 4.95931 24.9102 5.27832C24.6322 5.59733 24.4544 6.04167 24.377 6.61133H27.542V6.48828C27.5055 5.93229 27.3574 5.51302 27.0977 5.23047C26.8379 4.94336 26.4779 4.7998 26.0176 4.7998ZM34.3506 5.12109C34.1318 5.08464 33.9062 5.06641 33.6738 5.06641C32.9128 5.06641 32.4001 5.35807 32.1357 5.94141V11H30.4746V3.60352H32.0605L32.1016 4.43066C32.5026 3.78809 33.0586 3.4668 33.7695 3.4668C34.0065 3.4668 34.2025 3.4987 34.3574 3.5625L34.3506 5.12109ZM44.7822 6.78223H40.7764V11H39.0469V1.04688H45.3701V2.44141H40.7764V5.40137H44.7822V6.78223ZM46.1221 7.2334C46.1221 6.50879 46.2656 5.8571 46.5527 5.27832C46.8398 4.69499 47.2432 4.24837 47.7627 3.93848C48.2822 3.62402 48.8792 3.4668 49.5537 3.4668C50.5518 3.4668 51.3607 3.78809 51.9805 4.43066C52.6048 5.07324 52.9421 5.92546 52.9922 6.9873L52.999 7.37695C52.999 8.10612 52.8577 8.75781 52.5752 9.33203C52.2972 9.90625 51.8962 10.3506 51.3721 10.665C50.8525 10.9795 50.251 11.1367 49.5674 11.1367C48.5238 11.1367 47.6875 10.7904 47.0586 10.0977C46.4342 9.40039 46.1221 8.47298 46.1221 7.31543V7.2334ZM47.7832 7.37695C47.7832 8.13802 47.9404 8.73503 48.2549 9.16797C48.5693 9.59635 49.0068 9.81055 49.5674 9.81055C50.1279 9.81055 50.5632 9.5918 50.873 9.1543C51.1875 8.7168 51.3447 8.0765 51.3447 7.2334C51.3447 6.486 51.1829 5.89355 50.8594 5.45605C50.5404 5.01855 50.1051 4.7998 49.5537 4.7998C49.0114 4.7998 48.5807 5.01628 48.2617 5.44922C47.9427 5.8776 47.7832 6.52018 47.7832 7.37695ZM54.0928 7.2334C54.0928 6.50879 54.2363 5.8571 54.5234 5.27832C54.8105 4.69499 55.2139 4.24837 55.7334 3.93848C56.2529 3.62402 56.8499 3.4668 57.5244 3.4668C58.5225 3.4668 59.3314 3.78809 59.9512 4.43066C60.5755 5.07324 60.9128 5.92546 60.9629 6.9873L60.9697 7.37695C60.9697 8.10612 60.8285 8.75781 60.5459 9.33203C60.2679 9.90625 59.8669 10.3506 59.3428 10.665C58.8232 10.9795 58.2217 11.1367 57.5381 11.1367C56.4945 11.1367 55.6582 10.7904 55.0293 10.0977C54.4049 9.40039 54.0928 8.47298 54.0928 7.31543V7.2334ZM55.7539 7.37695C55.7539 8.13802 55.9111 8.73503 56.2256 9.16797C56.54 9.59635 56.9775 9.81055 57.5381 9.81055C58.0986 9.81055 58.5339 9.5918 58.8438 9.1543C59.1582 8.7168 59.3154 8.0765 59.3154 7.2334C59.3154 6.486 59.1536 5.89355 58.8301 5.45605C58.5111 5.01855 58.0758 4.7998 57.5244 4.7998C56.9821 4.7998 56.5514 5.01628 56.2324 5.44922C55.9134 5.8776 55.7539 6.52018 55.7539 7.37695ZM62.0635 7.24707C62.0635 6.10775 62.3278 5.19401 62.8564 4.50586C63.3851 3.81315 64.0938 3.4668 64.9824 3.4668C65.7663 3.4668 66.3997 3.74023 66.8828 4.28711V0.5H68.5439V11H67.04L66.958 10.2344C66.4613 10.8359 65.7982 11.1367 64.9688 11.1367C64.1029 11.1367 63.401 10.7881 62.8633 10.0908C62.3301 9.39355 62.0635 8.44564 62.0635 7.24707ZM63.7246 7.39062C63.7246 8.14258 63.8682 8.73047 64.1553 9.1543C64.4469 9.57357 64.8594 9.7832 65.3926 9.7832C66.0716 9.7832 66.5684 9.48014 66.8828 8.87402V5.71582C66.5775 5.12337 66.0853 4.82715 65.4062 4.82715C64.8685 4.82715 64.4538 5.04134 64.1621 5.46973C63.8704 5.89355 63.7246 6.53385 63.7246 7.39062ZM74.4229 8.99023C74.4229 8.69401 74.2998 8.46842 74.0537 8.31348C73.8122 8.15853 73.4089 8.02181 72.8438 7.90332C72.2786 7.78483 71.807 7.63444 71.4287 7.45215C70.5993 7.05111 70.1846 6.47005 70.1846 5.70898C70.1846 5.07096 70.4535 4.53776 70.9912 4.10938C71.529 3.68099 72.2126 3.4668 73.042 3.4668C73.9261 3.4668 74.6393 3.68555 75.1816 4.12305C75.7285 4.56055 76.002 5.12793 76.002 5.8252H74.3408C74.3408 5.50618 74.2223 5.24186 73.9854 5.03223C73.7484 4.81803 73.4339 4.71094 73.042 4.71094C72.6774 4.71094 72.3789 4.79525 72.1465 4.96387C71.9186 5.13249 71.8047 5.35807 71.8047 5.64062C71.8047 5.89583 71.9118 6.09408 72.126 6.23535C72.3402 6.37663 72.7731 6.52018 73.4248 6.66602C74.0765 6.80729 74.5869 6.97819 74.9561 7.17871C75.3298 7.37467 75.6055 7.61165 75.7832 7.88965C75.9655 8.16764 76.0566 8.50488 76.0566 8.90137C76.0566 9.56673 75.7809 10.1068 75.2295 10.5215C74.6781 10.9316 73.9557 11.1367 73.0625 11.1367C72.4564 11.1367 71.9163 11.0273 71.4424 10.8086C70.9684 10.5898 70.5993 10.2891 70.335 9.90625C70.0706 9.52344 69.9385 9.111 69.9385 8.66895H71.5518C71.5745 9.06087 71.7227 9.36393 71.9961 9.57812C72.2695 9.78776 72.6318 9.89258 73.083 9.89258C73.5205 9.89258 73.8532 9.81055 74.0811 9.64648C74.3089 9.47786 74.4229 9.25911 74.4229 8.99023Z" fill="black" fill-opacity="0.58"/>
<line x1="87" y1="6.5" x2="369" y2="6.5" stroke="#838383"/>
</svg>
