<svg width="35" height="11" viewBox="0 0 35 11" fill="none" xmlns="http://www.w3.org/2000/svg">
<path d="M4.53828 10.0383C2.03584 10.0383 0 8.00241 0 5.49998C0 2.99754 2.03584 0.9617 4.53828 0.9617C7.04096 0.9617 9.07688 2.99754 9.07688 5.49998C9.07688 8.00241 7.04104 10.0383 4.53828 10.0383ZM4.53828 2.62836C2.95493 2.62836 1.66667 3.91663 1.66667 5.49998C1.66667 7.08333 2.95493 8.37159 4.53828 8.37159C6.12195 8.37159 7.41021 7.08333 7.41021 5.49998C7.41021 3.91663 6.12195 2.62836 4.53828 2.62836Z" fill="white"/>
<path d="M17.5002 10.0383C14.9978 10.0383 12.9619 8.00249 12.9619 5.50004C12.9619 2.9976 14.9978 0.961761 17.5002 0.961761C20.0026 0.961761 22.0385 2.9976 22.0385 5.50004C22.0385 8.00249 20.0026 10.0383 17.5002 10.0383ZM17.5002 2.62835C15.9168 2.62835 14.6286 3.91661 14.6286 5.49997C14.6286 7.08332 15.9168 8.37158 17.5002 8.37158C19.0835 8.37158 20.3718 7.08332 20.3718 5.49997C20.3718 3.91661 19.0836 2.62835 17.5002 2.62835Z" fill="white"/>
<path d="M30.4614 10.0383C27.9588 10.0383 25.9229 8.00249 25.9229 5.50004C25.9229 2.9976 27.9587 0.961761 30.4614 0.961761C32.9639 0.961761 34.9997 2.9976 34.9997 5.50004C34.9997 8.00249 32.9639 10.0383 30.4614 10.0383ZM30.4614 2.62835C28.8778 2.62835 27.5895 3.91661 27.5895 5.49997C27.5895 7.08332 28.8778 8.37158 30.4614 8.37158C32.0448 8.37158 33.3331 7.08332 33.3331 5.49997C33.3331 3.91661 32.0449 2.62835 30.4614 2.62835Z" fill="white"/>
</svg>
