<svg width="369" height="12" viewBox="0 0 369 12" fill="none" xmlns="http://www.w3.org/2000/svg">
<path d="M6.87695 6.93262H2.93945V11H0.888672V1.04688H7.36914V2.70801H2.93945V5.27832H6.87695V6.93262ZM12.4824 11C12.3913 10.8223 12.3252 10.6012 12.2842 10.3369C11.8057 10.8701 11.1836 11.1367 10.418 11.1367C9.69336 11.1367 9.0918 10.9271 8.61328 10.5078C8.13932 10.0885 7.90234 9.5599 7.90234 8.92188C7.90234 8.13802 8.19173 7.53646 8.77051 7.11719C9.35384 6.69792 10.1947 6.486 11.293 6.48145H12.2021V6.05762C12.2021 5.71582 12.1133 5.44238 11.9355 5.2373C11.7624 5.03223 11.4867 4.92969 11.1084 4.92969C10.7757 4.92969 10.5137 5.00944 10.3223 5.16895C10.1354 5.32845 10.042 5.5472 10.042 5.8252H8.06641C8.06641 5.39681 8.19857 5.00033 8.46289 4.63574C8.72721 4.27116 9.10091 3.98633 9.58398 3.78125C10.0671 3.57161 10.6094 3.4668 11.2109 3.4668C12.1224 3.4668 12.8447 3.69694 13.3779 4.15723C13.9157 4.61296 14.1846 5.25553 14.1846 6.08496V9.29102C14.1891 9.99284 14.2871 10.5238 14.4785 10.8838V11H12.4824ZM10.8486 9.62598C11.1403 9.62598 11.4092 9.56217 11.6553 9.43457C11.9014 9.30241 12.0837 9.12695 12.2021 8.9082V7.63672H11.4639C10.4749 7.63672 9.94857 7.97852 9.88477 8.66211L9.87793 8.77832C9.87793 9.02441 9.96452 9.22721 10.1377 9.38672C10.3109 9.54622 10.5479 9.62598 10.8486 9.62598ZM18.3613 8.58691L19.7354 3.60352H21.7998L19.3047 11H17.418L14.9229 3.60352H16.9873L18.3613 8.58691ZM22.2578 7.2334C22.2578 6.49967 22.3991 5.8457 22.6816 5.27148C22.9642 4.69727 23.3698 4.25293 23.8984 3.93848C24.4316 3.62402 25.0492 3.4668 25.751 3.4668C26.749 3.4668 27.5625 3.77214 28.1914 4.38281C28.8249 4.99349 29.1781 5.82292 29.251 6.87109L29.2646 7.37695C29.2646 8.51172 28.9479 9.42318 28.3145 10.1113C27.681 10.7949 26.8311 11.1367 25.7646 11.1367C24.6982 11.1367 23.846 10.7949 23.208 10.1113C22.5745 9.42773 22.2578 8.49805 22.2578 7.32227V7.2334ZM24.2334 7.37695C24.2334 8.07878 24.3656 8.61654 24.6299 8.99023C24.8942 9.35938 25.2725 9.54395 25.7646 9.54395C26.2432 9.54395 26.6169 9.36165 26.8857 8.99707C27.1546 8.62793 27.2891 8.04004 27.2891 7.2334C27.2891 6.54525 27.1546 6.01204 26.8857 5.63379C26.6169 5.25553 26.2386 5.06641 25.751 5.06641C25.2679 5.06641 24.8942 5.25553 24.6299 5.63379C24.3656 6.00749 24.2334 6.58854 24.2334 7.37695ZM34.6377 5.45605C34.3688 5.4196 34.1318 5.40137 33.9268 5.40137C33.1794 5.40137 32.6895 5.6543 32.457 6.16016V11H30.4814V3.60352H32.3477L32.4023 4.48535C32.7988 3.80632 33.348 3.4668 34.0498 3.4668C34.2686 3.4668 34.4736 3.49642 34.665 3.55566L34.6377 5.45605ZM37.6797 11H35.6973V3.60352H37.6797V11ZM35.5811 1.68945C35.5811 1.39323 35.679 1.14941 35.875 0.958008C36.0755 0.766602 36.3467 0.670898 36.6885 0.670898C37.0257 0.670898 37.2946 0.766602 37.4951 0.958008C37.6956 1.14941 37.7959 1.39323 37.7959 1.68945C37.7959 1.99023 37.6934 2.23633 37.4883 2.42773C37.2878 2.61914 37.0212 2.71484 36.6885 2.71484C36.3558 2.71484 36.0869 2.61914 35.8818 2.42773C35.6813 2.23633 35.5811 1.99023 35.5811 1.68945ZM41.6787 1.78516V3.60352H42.9434V5.05273H41.6787V8.74414C41.6787 9.01758 41.7311 9.21354 41.8359 9.33203C41.9408 9.45052 42.1413 9.50977 42.4375 9.50977C42.6562 9.50977 42.8499 9.49382 43.0186 9.46191V10.959C42.6312 11.0775 42.2324 11.1367 41.8223 11.1367C40.4368 11.1367 39.7305 10.4372 39.7031 9.03809V5.05273H38.623V3.60352H39.7031V1.78516H41.6787ZM47.4482 11.1367C46.3636 11.1367 45.4795 10.804 44.7959 10.1387C44.1169 9.47331 43.7773 8.58691 43.7773 7.47949V7.28809C43.7773 6.54525 43.9209 5.88216 44.208 5.29883C44.4951 4.71094 44.9007 4.25977 45.4248 3.94531C45.9535 3.6263 46.555 3.4668 47.2295 3.4668C48.2412 3.4668 49.0365 3.78581 49.6152 4.42383C50.1986 5.06185 50.4902 5.96647 50.4902 7.1377V7.94434H45.7803C45.8441 8.42741 46.0355 8.81478 46.3545 9.10645C46.6781 9.39811 47.0859 9.54395 47.5781 9.54395C48.3392 9.54395 48.9339 9.26823 49.3623 8.7168L50.333 9.80371C50.0368 10.223 49.6357 10.5511 49.1299 10.7881C48.624 11.0205 48.0635 11.1367 47.4482 11.1367ZM47.2227 5.06641C46.8307 5.06641 46.5117 5.19857 46.2656 5.46289C46.0241 5.72721 45.8691 6.10547 45.8008 6.59766H48.5488V6.44043C48.5397 6.00293 48.4212 5.66569 48.1934 5.42871C47.9655 5.18717 47.6419 5.06641 47.2227 5.06641ZM55.624 8.95605C55.624 8.71452 55.5033 8.52539 55.2617 8.38867C55.0247 8.2474 54.6419 8.12207 54.1133 8.0127C52.3542 7.64355 51.4746 6.89616 51.4746 5.77051C51.4746 5.11426 51.7458 4.56738 52.2881 4.12988C52.835 3.68783 53.5482 3.4668 54.4277 3.4668C55.3665 3.4668 56.1162 3.68783 56.6768 4.12988C57.2419 4.57194 57.5244 5.14616 57.5244 5.85254H55.5488C55.5488 5.56999 55.4577 5.33757 55.2754 5.15527C55.0931 4.96842 54.8083 4.875 54.4209 4.875C54.0882 4.875 53.8307 4.9502 53.6484 5.10059C53.4661 5.25098 53.375 5.44238 53.375 5.6748C53.375 5.89355 53.4775 6.07129 53.6826 6.20801C53.8923 6.34017 54.2432 6.45638 54.7354 6.55664C55.2275 6.65234 55.6423 6.76172 55.9795 6.88477C57.0231 7.26758 57.5449 7.93066 57.5449 8.87402C57.5449 9.5485 57.2555 10.0954 56.6768 10.5146C56.098 10.9294 55.3506 11.1367 54.4346 11.1367C53.8148 11.1367 53.2633 11.0273 52.7803 10.8086C52.3018 10.5853 51.9258 10.2822 51.6523 9.89941C51.3789 9.51204 51.2422 9.09505 51.2422 8.64844H53.1152C53.1335 8.99935 53.2633 9.26823 53.5049 9.45508C53.7464 9.64193 54.07 9.73535 54.4756 9.73535C54.8538 9.73535 55.1387 9.66471 55.3301 9.52344C55.526 9.3776 55.624 9.18848 55.624 8.95605Z" fill="#FFC107"/>
<line x1="67" y1="6.5" x2="369" y2="6.5" stroke="#FFC107"/>
</svg>
