<svg width="240" height="52" viewBox="0 0 240 52" fill="none" xmlns="http://www.w3.org/2000/svg">
<rect width="240" height="52" rx="10" fill="#5CA8EF"/>
<path d="M84.7148 30.0273H78.1055L76.7227 34H73.6406L80.0859 16.9375H82.7461L89.2031 34H86.1094L84.7148 30.0273ZM78.9375 27.6367H83.8828L81.4102 20.5586L78.9375 27.6367ZM90.3398 27.5664C90.3398 25.6133 90.793 24.0469 91.6992 22.8672C92.6055 21.6797 93.8203 21.0859 95.3438 21.0859C96.6875 21.0859 97.7734 21.5547 98.6016 22.4922V16H101.449V34H98.8711L98.7305 32.6875C97.8789 33.7188 96.7422 34.2344 95.3203 34.2344C93.8359 34.2344 92.6328 33.6367 91.7109 32.4414C90.7969 31.2461 90.3398 29.6211 90.3398 27.5664ZM93.1875 27.8125C93.1875 29.1016 93.4336 30.1094 93.9258 30.8359C94.4258 31.5547 95.1328 31.9141 96.0469 31.9141C97.2109 31.9141 98.0625 31.3945 98.6016 30.3555V24.9414C98.0781 23.9258 97.2344 23.418 96.0703 23.418C95.1484 23.418 94.4375 23.7852 93.9375 24.5195C93.4375 25.2461 93.1875 26.3438 93.1875 27.8125ZM103.887 27.5664C103.887 25.6133 104.34 24.0469 105.246 22.8672C106.152 21.6797 107.367 21.0859 108.891 21.0859C110.234 21.0859 111.32 21.5547 112.148 22.4922V16H114.996V34H112.418L112.277 32.6875C111.426 33.7188 110.289 34.2344 108.867 34.2344C107.383 34.2344 106.18 33.6367 105.258 32.4414C104.344 31.2461 103.887 29.6211 103.887 27.5664ZM106.734 27.8125C106.734 29.1016 106.98 30.1094 107.473 30.8359C107.973 31.5547 108.68 31.9141 109.594 31.9141C110.758 31.9141 111.609 31.3945 112.148 30.3555V24.9414C111.625 23.9258 110.781 23.418 109.617 23.418C108.695 23.418 107.984 23.7852 107.484 24.5195C106.984 25.2461 106.734 26.3438 106.734 27.8125ZM126.586 21.3203L126.668 22.7852C127.605 21.6523 128.836 21.0859 130.359 21.0859C133 21.0859 134.344 22.5977 134.391 25.6211V34H131.543V25.7852C131.543 24.9805 131.367 24.3867 131.016 24.0039C130.672 23.6133 130.105 23.418 129.316 23.418C128.168 23.418 127.312 23.9375 126.75 24.9766V34H123.902V21.3203H126.586ZM142.887 34.2344C141.082 34.2344 139.617 33.668 138.492 32.5352C137.375 31.3945 136.816 29.8789 136.816 27.9883V27.6367C136.816 26.3711 137.059 25.2422 137.543 24.25C138.035 23.25 138.723 22.4727 139.605 21.918C140.488 21.3633 141.473 21.0859 142.559 21.0859C144.285 21.0859 145.617 21.6367 146.555 22.7383C147.5 23.8398 147.973 25.3984 147.973 27.4141V28.5625H139.688C139.773 29.6094 140.121 30.4375 140.73 31.0469C141.348 31.6562 142.121 31.9609 143.051 31.9609C144.355 31.9609 145.418 31.4336 146.238 30.3789L147.773 31.8438C147.266 32.6016 146.586 33.1914 145.734 33.6133C144.891 34.0273 143.941 34.2344 142.887 34.2344ZM142.547 23.3711C141.766 23.3711 141.133 23.6445 140.648 24.1914C140.172 24.7383 139.867 25.5 139.734 26.4766H145.16V26.2656C145.098 25.3125 144.844 24.5938 144.398 24.1094C143.953 23.6172 143.336 23.3711 142.547 23.3711ZM161.332 30.0742L163.348 21.3203H166.125L162.668 34H160.324L157.605 25.293L154.934 34H152.59L149.121 21.3203H151.898L153.949 29.9805L156.551 21.3203H158.695L161.332 30.0742Z" fill="white"/>
</svg>
