<svg width="17" height="22" viewBox="0 0 17 22" fill="none" xmlns="http://www.w3.org/2000/svg">
<path d="M5.72028 5.01068L7.09677 3.63426V14.5481C7.09677 15.136 7.57339 15.6126 8.16128 15.6126C8.74918 15.6126 9.2258 15.136 9.2258 14.5481V3.63433L10.6021 5.01068C10.81 5.21854 11.0824 5.32251 11.3548 5.32251C11.6273 5.32251 11.8997 5.21861 12.1075 5.01068C12.5232 4.59495 12.5232 3.92097 12.1075 3.50524L8.91418 0.311832C8.8892 0.286922 8.86301 0.263361 8.83583 0.241077C8.82405 0.231426 8.81163 0.223052 8.79964 0.214039C8.78388 0.202187 8.76848 0.190123 8.75209 0.179123C8.7374 0.169258 8.72214 0.160742 8.70703 0.151729C8.69234 0.142858 8.67793 0.133632 8.66274 0.125542C8.64734 0.11731 8.63159 0.110355 8.61583 0.102974C8.60001 0.0954516 8.58454 0.0876451 8.56828 0.0809032C8.5531 0.0745871 8.53763 0.0695484 8.52223 0.0640129C8.50491 0.0577677 8.48781 0.0510968 8.46999 0.0457742C8.45466 0.0411613 8.43912 0.0377548 8.42372 0.0338516C8.40556 0.0292387 8.38753 0.024129 8.36901 0.0205097C8.35126 0.0170323 8.33331 0.0149742 8.31543 0.0123484C8.29896 0.0100064 8.28278 0.00688387 8.2661 0.00525161C8.23332 0.00205806 8.20046 0.000496774 8.16753 0.000283871C8.1654 0.000283871 8.16334 0 8.16121 0C8.15916 0 8.15703 0.000283871 8.15497 0.000283871C8.12204 0.000425806 8.08911 0.00205806 8.05625 0.00525161C8.03993 0.00688387 8.0241 0.00993548 8.00799 0.0122064C7.98968 0.0148323 7.97137 0.0169613 7.95328 0.0205806C7.93525 0.024129 7.91779 0.0290968 7.90012 0.0335677C7.88408 0.0376129 7.86805 0.0410903 7.85215 0.0458451C7.83505 0.0510258 7.81837 0.0574839 7.80162 0.0635161C7.78565 0.0692645 7.76954 0.0745161 7.75379 0.0810451C7.73817 0.0875032 7.72327 0.0950967 7.70808 0.102264C7.69176 0.109929 7.6753 0.117239 7.65926 0.125755C7.64478 0.13349 7.63116 0.14229 7.61703 0.150735C7.60121 0.160103 7.58531 0.169045 7.56991 0.179335C7.55451 0.189626 7.5401 0.201123 7.52527 0.212122C7.51221 0.221845 7.49894 0.230858 7.48631 0.24129C7.46041 0.26251 7.43564 0.285006 7.41186 0.308497C7.41073 0.309632 7.40952 0.310555 7.40832 0.31169L4.21463 3.50524C3.7989 3.92097 3.7989 4.59495 4.21463 5.01068C4.63057 5.4264 5.30462 5.42626 5.72028 5.01068Z" fill="black"/>
<path d="M15.2581 7.09677H12.4194C11.8315 7.09677 11.3548 7.57339 11.3548 8.16129C11.3548 8.74918 11.8315 9.2258 12.4194 9.2258H14.1935V19.871H2.12903V9.2258H3.90322C4.49112 9.2258 4.96774 8.74918 4.96774 8.16129C4.96774 7.57339 4.49112 7.09677 3.90322 7.09677H1.06452C0.476619 7.09677 0 7.57339 0 8.16129V20.9355C0 21.5234 0.476619 22 1.06452 22H15.2581C15.846 22 16.3226 21.5234 16.3226 20.9355V8.16129C16.3226 7.57339 15.846 7.09677 15.2581 7.09677Z" fill="black"/>
</svg>
