<svg width="35" height="35" viewBox="0 0 35 35" fill="none" xmlns="http://www.w3.org/2000/svg">
<path d="M7.83374 34.2923C7.45027 34.2923 7.06948 34.1726 6.7445 33.9376C6.13913 33.4989 5.85634 32.7448 6.0211 32.0171L8.27274 22.0986L0.636598 15.4019C0.0752896 14.9119 -0.13914 14.1359 0.0913118 13.4258C0.321763 12.7171 0.948763 12.2154 1.69112 12.1467L11.7947 11.2295L15.7893 1.88134C16.0838 1.19452 16.7546 0.750977 17.4999 0.750977C18.2452 0.750977 18.916 1.19452 19.2105 1.87974L23.2051 11.2295L33.307 12.1467C34.051 12.2137 34.678 12.7171 34.9085 13.4258C35.1389 14.1345 34.9258 14.9119 34.3645 15.4019L26.7284 22.0973L28.98 32.0155C29.145 32.7448 28.862 33.4989 28.2569 33.9363C27.6531 34.3737 26.848 34.4074 26.2122 34.0252L17.4999 28.8188L8.78759 34.0282C8.49305 34.2031 8.16486 34.2923 7.83374 34.2923ZM17.4999 26.576C17.831 26.576 18.1589 26.6649 18.4537 26.8398L26.676 31.7576L24.551 22.3961C24.3993 21.7298 24.6255 21.0342 25.1403 20.5834L32.3505 14.26L22.8112 13.3938C22.1244 13.331 21.5337 12.8992 21.2654 12.2664L17.4999 3.44457L13.7299 12.2677C13.4644 12.8963 12.8738 13.3281 12.1886 13.3908L2.64791 14.2571L9.85787 20.5805C10.3743 21.0326 10.6002 21.7269 10.4472 22.3948L8.32375 31.756L16.546 26.8398C16.8406 26.6649 17.1688 26.576 17.4999 26.576ZM11.7175 11.4102C11.7175 11.4102 11.7175 11.4118 11.7159 11.4132L11.7175 11.4102ZM23.2793 11.406L23.2809 11.4089C23.2809 11.4073 23.2809 11.4073 23.2793 11.406Z" fill="black"/>
</svg>
