<svg width="23" height="22" viewBox="0 0 23 22" fill="none" xmlns="http://www.w3.org/2000/svg">
<g clip-path="url(#clip0_55:105)">
<path d="M11.0012 22C17.0663 22 22.0012 17.0655 22.0012 11C22.0012 9.95308 21.8551 8.92139 21.5657 7.93333C21.4232 7.44747 20.9158 7.1684 20.4286 7.31095C19.9423 7.45306 19.6641 7.9622 19.8062 8.44806C20.0459 9.26894 20.1679 10.1279 20.1679 11C20.1679 16.0544 16.0556 20.1667 11.0012 20.1667C5.9468 20.1667 1.83455 16.0544 1.83455 11C1.83455 5.94558 5.9468 1.83333 11.0012 1.83333C12.8381 1.83333 14.6054 2.37044 16.112 3.38625C16.5314 3.66935 17.1017 3.55813 17.3843 3.13873C17.6672 2.71889 17.5569 2.14911 17.137 1.86623C15.3265 0.645426 13.2049 0 11.0012 0C4.93614 0 0.0012207 4.93447 0.0012207 11C0.0012207 17.0655 4.93614 22 11.0012 22V22Z" fill="#5CA8EF"/>
<path d="M20.4365 2.10188L11.0013 11.5367L7.9827 8.51855C7.62463 8.1607 7.04455 8.1607 6.68648 8.51855C6.32863 8.87662 6.32863 9.4567 6.68648 9.81477L10.3531 13.4814C10.5324 13.6607 10.7665 13.75 11.0013 13.75C11.236 13.75 11.4701 13.6607 11.6494 13.4814L21.7327 3.39811C22.0905 3.04003 22.0905 2.45996 21.7327 2.10188C21.3746 1.74403 20.7945 1.74403 20.4365 2.10188Z" fill="#5CA8EF"/>
</g>
<defs>
<clipPath id="clip0_55:105">
<rect width="22" height="22" fill="white" transform="translate(0.0012207)"/>
</clipPath>
</defs>
</svg>
