<svg width="35" height="35" viewBox="0 0 35 35" fill="none" xmlns="http://www.w3.org/2000/svg">
<path d="M34.9088 13.4258C34.6797 12.7171 34.0511 12.2137 33.3074 12.1467L23.2054 11.2295L19.2108 1.87974C18.9163 1.19452 18.2455 0.750977 17.5002 0.750977C16.7549 0.750977 16.0841 1.19452 15.7895 1.88134L11.795 11.2295L1.6914 12.1467C0.94904 12.2154 0.322041 12.7171 0.0915888 13.4258C-0.138863 14.1345 0.0739644 14.9119 0.63554 15.4019L8.27143 22.0986L6.01978 32.0171C5.85502 32.7464 6.13808 33.5002 6.74318 33.9376C7.06843 34.1726 7.44896 34.2923 7.83269 34.2923C8.16354 34.2923 8.49173 34.2031 8.78627 34.0268L17.5002 28.8188L26.2109 34.0268C26.8483 34.4103 27.6518 34.3753 28.2556 33.9376C28.8609 33.4989 29.1437 32.7448 28.979 32.0171L26.7273 22.0986L34.3632 15.4032C34.9248 14.9119 35.1392 14.1359 34.9088 13.4258Z" fill="#FFC107"/>
</svg>
