<svg width="38" height="33" viewBox="0 0 38 33" fill="none" xmlns="http://www.w3.org/2000/svg">
<path d="M37.5 13.5C37.5 15.7091 35.7091 17.5 33.5 17.5C31.2909 17.5 29.5 15.7091 29.5 13.5C29.5 11.2909 31.2909 9.5 33.5 9.5C35.7091 9.5 37.5 11.2909 37.5 13.5Z" stroke="white"/>
<path d="M23.5 19.5C23.5 21.7091 21.7091 23.5 19.5 23.5C17.2909 23.5 15.5 21.7091 15.5 19.5C15.5 17.2909 17.2909 15.5 19.5 15.5C21.7091 15.5 23.5 17.2909 23.5 19.5Z" stroke="white"/>
<path d="M33 9L33 1" stroke="white" stroke-width="2"/>
<line x1="3" y1="1.5" x2="38" y2="1.5" stroke="white" stroke-width="3"/>
<path d="M19.5 15L19.5 0.499999M4 24L4 0.5" stroke="white" stroke-width="2"/>
<path d="M8.5 28.5C8.5 30.7091 6.70914 32.5 4.5 32.5C2.29086 32.5 0.5 30.7091 0.5 28.5C0.5 26.2909 2.29086 24.5 4.5 24.5C6.70914 24.5 8.5 26.2909 8.5 28.5Z" stroke="white"/>
</svg>
