<svg width="23" height="22" viewBox="0 0 23 22" fill="none" xmlns="http://www.w3.org/2000/svg">
<g clip-path="url(#clip0_55:137)">
<path d="M11.0024 22C4.93697 22 0.00244141 17.0655 0.00244141 11C0.00244141 4.93452 4.93697 0 11.0024 0C17.0679 0 22.0024 4.93452 22.0024 11C22.0024 17.0655 17.0679 22 11.0024 22ZM11.0024 1.57138C5.80356 1.57138 1.57382 5.80112 1.57382 11C1.57382 16.1989 5.80356 20.4286 11.0024 20.4286C16.2013 20.4286 20.4311 16.1989 20.4311 11C20.4311 5.80112 16.2013 1.57138 11.0024 1.57138Z" fill="#FB0A0A"/>
<path d="M14.931 15.7144C14.7299 15.7144 14.5288 15.6377 14.3754 15.4841L6.51833 7.62705C6.21134 7.32005 6.21134 6.82289 6.51833 6.51607C6.82515 6.20925 7.32248 6.20908 7.62931 6.51607L15.4864 14.3731C15.7934 14.6801 15.7934 15.1773 15.4864 15.4841C15.333 15.6377 15.1321 15.7144 14.931 15.7144V15.7144Z" fill="#FB0A0A"/>
<path d="M7.07373 15.7142C6.87265 15.7142 6.67174 15.6375 6.51833 15.4839C6.21134 15.1771 6.21134 14.6798 6.51833 14.373L14.3754 6.51589C14.6824 6.2089 15.1796 6.2089 15.4864 6.51589C15.7932 6.82271 15.7934 7.32004 15.4864 7.62687L7.62931 15.4839C7.47589 15.6375 7.27481 15.7142 7.07373 15.7142V15.7142Z" fill="#FB0A0A"/>
</g>
<defs>
<clipPath id="clip0_55:137">
<rect width="22" height="22" fill="white" transform="translate(0.00244141)"/>
</clipPath>
</defs>
</svg>
