<svg width="208" height="66" viewBox="0 0 208 66" fill="none" xmlns="http://www.w3.org/2000/svg">
<g filter="url(#filter0_d_0_1)">
<rect x="4" y="4" width="192" height="50" rx="10" fill="#FFC107"/>
</g>
<path d="M75.5869 32.3633H70.9639L70.085 35H67.2812L72.0449 22.2031H74.4883L79.2783 35H76.4746L75.5869 32.3633ZM71.6758 30.2275H74.875L73.2666 25.4375L71.6758 30.2275ZM79.9111 30.1748C79.9111 28.6924 80.2422 27.5117 80.9043 26.6328C81.5723 25.7539 82.4834 25.3145 83.6377 25.3145C84.5635 25.3145 85.3281 25.6602 85.9316 26.3516V21.5H88.4805V35H86.1865L86.0635 33.9893C85.4307 34.7803 84.6162 35.1758 83.6201 35.1758C82.501 35.1758 81.6016 34.7363 80.9219 33.8574C80.248 32.9727 79.9111 31.7451 79.9111 30.1748ZM82.4512 30.3594C82.4512 31.25 82.6064 31.9326 82.917 32.4072C83.2275 32.8818 83.6787 33.1191 84.2705 33.1191C85.0557 33.1191 85.6094 32.7881 85.9316 32.126V28.373C85.6152 27.7109 85.0674 27.3799 84.2881 27.3799C83.0635 27.3799 82.4512 28.373 82.4512 30.3594ZM90.0537 30.1748C90.0537 28.6924 90.3848 27.5117 91.0469 26.6328C91.7148 25.7539 92.626 25.3145 93.7803 25.3145C94.7061 25.3145 95.4707 25.6602 96.0742 26.3516V21.5H98.623V35H96.3291L96.2061 33.9893C95.5732 34.7803 94.7588 35.1758 93.7627 35.1758C92.6436 35.1758 91.7441 34.7363 91.0645 33.8574C90.3906 32.9727 90.0537 31.7451 90.0537 30.1748ZM92.5938 30.3594C92.5938 31.25 92.749 31.9326 93.0596 32.4072C93.3701 32.8818 93.8213 33.1191 94.4131 33.1191C95.1982 33.1191 95.752 32.7881 96.0742 32.126V28.373C95.7578 27.7109 95.21 27.3799 94.4307 27.3799C93.2061 27.3799 92.5938 28.373 92.5938 30.3594ZM111.877 31.6426C111.877 31.1445 111.701 30.7637 111.35 30.5C110.998 30.2305 110.365 29.9492 109.451 29.6562C108.537 29.3574 107.813 29.0645 107.28 28.7773C105.827 27.9922 105.101 26.9346 105.101 25.6045C105.101 24.9131 105.294 24.2979 105.681 23.7588C106.073 23.2139 106.633 22.7891 107.359 22.4844C108.092 22.1797 108.912 22.0273 109.82 22.0273C110.734 22.0273 111.549 22.1943 112.264 22.5283C112.979 22.8564 113.532 23.3223 113.925 23.9258C114.323 24.5293 114.522 25.2148 114.522 25.9824H111.886C111.886 25.3965 111.701 24.9424 111.332 24.6201C110.963 24.292 110.444 24.1279 109.776 24.1279C109.132 24.1279 108.631 24.2656 108.273 24.541C107.916 24.8105 107.737 25.168 107.737 25.6133C107.737 26.0293 107.945 26.3779 108.361 26.6592C108.783 26.9404 109.401 27.2041 110.216 27.4502C111.716 27.9014 112.809 28.4609 113.494 29.1289C114.18 29.7969 114.522 30.6289 114.522 31.625C114.522 32.7324 114.104 33.6025 113.266 34.2354C112.428 34.8623 111.3 35.1758 109.882 35.1758C108.897 35.1758 108.001 34.9971 107.192 34.6396C106.384 34.2764 105.766 33.7812 105.338 33.1543C104.916 32.5273 104.705 31.8008 104.705 30.9746H107.351C107.351 32.3867 108.194 33.0928 109.882 33.0928C110.509 33.0928 110.998 32.9668 111.35 32.7148C111.701 32.457 111.877 32.0996 111.877 31.6426ZM120.525 35.1758C119.131 35.1758 117.994 34.748 117.115 33.8926C116.242 33.0371 115.806 31.8975 115.806 30.4736V30.2275C115.806 29.2725 115.99 28.4199 116.359 27.6699C116.729 26.9141 117.25 26.334 117.924 25.9297C118.604 25.5195 119.377 25.3145 120.244 25.3145C121.545 25.3145 122.567 25.7246 123.312 26.5449C124.062 27.3652 124.437 28.5283 124.437 30.0342V31.0713H118.381C118.463 31.6924 118.709 32.1904 119.119 32.5654C119.535 32.9404 120.06 33.1279 120.692 33.1279C121.671 33.1279 122.436 32.7734 122.986 32.0645L124.234 33.4619C123.854 34.001 123.338 34.4229 122.688 34.7275C122.037 35.0264 121.316 35.1758 120.525 35.1758ZM120.235 27.3711C119.731 27.3711 119.321 27.541 119.005 27.8809C118.694 28.2207 118.495 28.707 118.407 29.3398H121.94V29.1377C121.929 28.5752 121.776 28.1416 121.483 27.8369C121.19 27.5264 120.774 27.3711 120.235 27.3711ZM128.567 35H126.019V21.5H128.567V35ZM135.045 35.1758C133.65 35.1758 132.514 34.748 131.635 33.8926C130.762 33.0371 130.325 31.8975 130.325 30.4736V30.2275C130.325 29.2725 130.51 28.4199 130.879 27.6699C131.248 26.9141 131.77 26.334 132.443 25.9297C133.123 25.5195 133.896 25.3145 134.764 25.3145C136.064 25.3145 137.087 25.7246 137.831 26.5449C138.581 27.3652 138.956 28.5283 138.956 30.0342V31.0713H132.9C132.982 31.6924 133.229 32.1904 133.639 32.5654C134.055 32.9404 134.579 33.1279 135.212 33.1279C136.19 33.1279 136.955 32.7734 137.506 32.0645L138.754 33.4619C138.373 34.001 137.857 34.4229 137.207 34.7275C136.557 35.0264 135.836 35.1758 135.045 35.1758ZM134.755 27.3711C134.251 27.3711 133.841 27.541 133.524 27.8809C133.214 28.2207 133.015 28.707 132.927 29.3398H136.46V29.1377C136.448 28.5752 136.296 28.1416 136.003 27.8369C135.71 27.5264 135.294 27.3711 134.755 27.3711ZM144.361 33.1279C144.83 33.1279 145.211 32.999 145.504 32.7412C145.797 32.4834 145.949 32.1406 145.961 31.7129H148.343C148.337 32.3574 148.161 32.9492 147.815 33.4883C147.47 34.0215 146.995 34.4375 146.392 34.7363C145.794 35.0293 145.132 35.1758 144.405 35.1758C143.046 35.1758 141.974 34.7451 141.188 33.8838C140.403 33.0166 140.011 31.8213 140.011 30.2979V30.1309C140.011 28.666 140.4 27.4971 141.18 26.624C141.959 25.751 143.028 25.3145 144.388 25.3145C145.577 25.3145 146.529 25.6543 147.244 26.334C147.965 27.0078 148.331 27.9072 148.343 29.0322H145.961C145.949 28.54 145.797 28.1416 145.504 27.8369C145.211 27.5264 144.824 27.3711 144.344 27.3711C143.752 27.3711 143.304 27.5879 142.999 28.0215C142.7 28.4492 142.551 29.1465 142.551 30.1133V30.377C142.551 31.3555 142.7 32.0586 142.999 32.4863C143.298 32.9141 143.752 33.1279 144.361 33.1279ZM152.834 23.1523V25.4902H154.46V27.3535H152.834V32.0996C152.834 32.4512 152.901 32.7031 153.036 32.8555C153.171 33.0078 153.429 33.084 153.81 33.084C154.091 33.084 154.34 33.0635 154.557 33.0225V34.9473C154.059 35.0996 153.546 35.1758 153.019 35.1758C151.237 35.1758 150.329 34.2764 150.294 32.4775V27.3535H148.905V25.4902H150.294V23.1523H152.834ZM160.252 35.1758C158.857 35.1758 157.721 34.748 156.842 33.8926C155.969 33.0371 155.532 31.8975 155.532 30.4736V30.2275C155.532 29.2725 155.717 28.4199 156.086 27.6699C156.455 26.9141 156.977 26.334 157.65 25.9297C158.33 25.5195 159.104 25.3145 159.971 25.3145C161.271 25.3145 162.294 25.7246 163.038 26.5449C163.788 27.3652 164.163 28.5283 164.163 30.0342V31.0713H158.107C158.189 31.6924 158.436 32.1904 158.846 32.5654C159.262 32.9404 159.786 33.1279 160.419 33.1279C161.397 33.1279 162.162 32.7734 162.713 32.0645L163.961 33.4619C163.58 34.001 163.064 34.4229 162.414 34.7275C161.764 35.0264 161.043 35.1758 160.252 35.1758ZM159.962 27.3711C159.458 27.3711 159.048 27.541 158.731 27.8809C158.421 28.2207 158.222 28.707 158.134 29.3398H161.667V29.1377C161.655 28.5752 161.503 28.1416 161.21 27.8369C160.917 27.5264 160.501 27.3711 159.962 27.3711ZM165.218 30.1748C165.218 28.6924 165.549 27.5117 166.211 26.6328C166.879 25.7539 167.79 25.3145 168.944 25.3145C169.87 25.3145 170.635 25.6602 171.238 26.3516V21.5H173.787V35H171.493L171.37 33.9893C170.737 34.7803 169.923 35.1758 168.927 35.1758C167.808 35.1758 166.908 34.7363 166.229 33.8574C165.555 32.9727 165.218 31.7451 165.218 30.1748ZM167.758 30.3594C167.758 31.25 167.913 31.9326 168.224 32.4072C168.534 32.8818 168.985 33.1191 169.577 33.1191C170.362 33.1191 170.916 32.7881 171.238 32.126V28.373C170.922 27.7109 170.374 27.3799 169.595 27.3799C168.37 27.3799 167.758 28.373 167.758 30.3594Z" fill="white"/>
<path d="M35 44C43.2706 44 50 37.2712 50 29C50 27.5724 49.8007 26.1655 49.4061 24.8182C49.2117 24.1556 48.5199 23.7751 47.8555 23.9695C47.1924 24.1633 46.813 24.8575 47.0068 25.5201C47.3337 26.6395 47.5 27.8107 47.5 29C47.5 35.8924 41.8924 41.5 35 41.5C28.1076 41.5 22.5 35.8924 22.5 29C22.5 22.1076 28.1076 16.5 35 16.5C37.5049 16.5 39.9149 17.2324 41.9693 18.6176C42.5412 19.0037 43.3188 18.852 43.7042 18.2801C44.09 17.7076 43.9395 16.9306 43.367 16.5449C40.8981 14.8801 38.0051 14 35 14C26.7294 14 20 20.7288 20 29C20 37.2712 26.7294 44 35 44V44Z" fill="white"/>
<path d="M47.8662 16.866L35 29.7316L30.8838 25.616C30.3955 25.128 29.6045 25.128 29.1162 25.616C28.6283 26.1043 28.6283 26.8953 29.1162 27.3836L34.1162 32.3836C34.3607 32.628 34.6799 32.7498 35 32.7498C35.3201 32.7498 35.6394 32.628 35.8838 32.3836L49.6338 18.6336C50.1218 18.1453 50.1218 17.3543 49.6338 16.866C49.1455 16.378 48.3545 16.378 47.8662 16.866Z" fill="white"/>
<defs>
<filter id="filter0_d_0_1" x="0" y="0" width="208" height="66" filterUnits="userSpaceOnUse" color-interpolation-filters="sRGB">
<feFlood flood-opacity="0" result="BackgroundImageFix"/>
<feColorMatrix in="SourceAlpha" type="matrix" values="0 0 0 0 0 0 0 0 0 0 0 0 0 0 0 0 0 0 127 0" result="hardAlpha"/>
<feMorphology radius="2" operator="dilate" in="SourceAlpha" result="effect1_dropShadow_0_1"/>
<feOffset dx="4" dy="4"/>
<feGaussianBlur stdDeviation="3"/>
<feColorMatrix type="matrix" values="0 0 0 0 0 0 0 0 0 0 0 0 0 0 0 0 0 0 0.25 0"/>
<feBlend mode="normal" in2="BackgroundImageFix" result="effect1_dropShadow_0_1"/>
<feBlend mode="normal" in="SourceGraphic" in2="effect1_dropShadow_0_1" result="shape"/>
</filter>
</defs>
</svg>
