<svg width="23" height="22" viewBox="0 0 23 22" fill="none" xmlns="http://www.w3.org/2000/svg">
<path d="M21.9438 8.31354C21.7998 7.84869 21.4047 7.51853 20.9372 7.47456L14.5874 6.87292L12.0766 0.740363C11.8914 0.290926 11.4698 0 11.0013 0C10.5328 0 10.1112 0.290926 9.92606 0.741414L7.41518 6.87292L1.06438 7.47456C0.597759 7.51958 0.203646 7.84869 0.0587907 8.31354C-0.0860644 8.77839 0.0477125 9.28825 0.400702 9.60965L5.20039 14.0021L3.78507 20.5077C3.68151 20.9861 3.85943 21.4805 4.23978 21.7674C4.44422 21.9215 4.68341 22 4.92461 22C5.13258 22 5.33887 21.9415 5.52401 21.8259L11.0013 18.4099L16.4766 21.8259C16.8773 22.0774 17.3823 22.0545 17.7618 21.7674C18.1423 21.4796 18.3201 20.985 18.2165 20.5077L16.8012 14.0021L21.6009 9.61053C21.9539 9.28825 22.0887 8.77926 21.9438 8.31354V8.31354Z" fill="#FFC107"/>
</svg>
