<svg version="1.1" viewBox="0.0 0.0 192.0 192.0" fill="none" stroke="none" stroke-linecap="square" stroke-miterlimit="10" xmlns:xlink="http://www.w3.org/1999/xlink" xmlns="http://www.w3.org/2000/svg"><clipPath id="p.0"><path d="m0 0l192.0 0l0 192.0l-192.0 0l0 -192.0z" clip-rule="nonzero"/></clipPath><g clip-path="url(#p.0)"><path fill="#000000" fill-opacity="0.0" d="m0 0l192.0 0l0 192.0l-192.0 0z" fill-rule="evenodd"/><path fill="#000000" fill-opacity="0.0" d="m33.12861 37.09368l-17.259842 14.456692" fill-rule="evenodd"/><path stroke="#6fa8dc" stroke-width="4.0" stroke-linejoin="round" stroke-linecap="butt" d="m33.12861 37.09368l-17.259842 14.456692" fill-rule="evenodd"/><path fill="#000000" fill-opacity="0.0" d="m24.262466 43.392895l28.0 80.47244" fill-rule="evenodd"/><path stroke="#6fa8dc" stroke-width="3.0" stroke-linejoin="round" stroke-linecap="butt" d="m24.262466 43.392895l28.0 80.47244" fill-rule="evenodd"/><path fill="#000000" fill-opacity="0.0" d="m50.85827 122.94408l95.65354 -0.22047424" fill-rule="evenodd"/><path stroke="#6fa8dc" stroke-width="3.0" stroke-linejoin="round" stroke-linecap="butt" d="m50.85827 122.94408l95.65354 -0.22047424" fill-rule="evenodd"/><path fill="#cfe2f3" d="m61.82152 38.49344l73.480316 0l0 75.59055l-73.480316 0z" fill-rule="evenodd"/><path stroke="#6fa8dc" stroke-width="4.0" stroke-linejoin="round" stroke-linecap="butt" d="m61.82152 38.49344l73.480316 0l0 75.59055l-73.480316 0z" fill-rule="evenodd"/><path fill="#000000" fill-opacity="0.0" d="m73.72179 49.923885l50.614174 0l0 51.559055l-50.614174 0z" fill-rule="evenodd"/><path stroke="#6fa8dc" stroke-width="4.0" stroke-linejoin="round" stroke-linecap="butt" d="m73.72179 49.923885l50.614174 0l0 51.559055l-50.614174 0z" fill-rule="evenodd"/><path fill="#000000" fill-opacity="0.0" d="m62.989502 113.84777l72.31496 -75.338585" fill-rule="evenodd"/><path stroke="#6fa8dc" stroke-width="4.0" stroke-linejoin="round" stroke-linecap="butt" d="m62.989502 113.84777l72.31496 -75.338585" fill-rule="evenodd"/><path fill="#000000" fill-opacity="0.0" d="m62.755905 38.96063l71.622055 74.17323" fill-rule="evenodd"/><path stroke="#6fa8dc" stroke-width="4.0" stroke-linejoin="round" stroke-linecap="butt" d="m62.755905 38.96063l71.622055 74.17323" fill-rule="evenodd"/><path fill="#cfe2f3" d="m57.454067 137.46194l0 0c0 -7.7319946 6.268013 -14.0 14.000004 -14.0l0 0c3.713028 0 7.273979 1.4749908 9.89949 4.100502c2.6255112 2.6255112 4.1005096 6.18647 4.1005096 9.899498l0 0c0 7.7319794 -6.268013 14.0 -14.0 14.0l0 0c-7.731991 0 -14.000004 -6.2680206 -14.000004 -14.0z" fill-rule="evenodd"/><path stroke="#6fa8dc" stroke-width="4.0" stroke-linejoin="round" stroke-linecap="butt" d="m57.454067 137.46194l0 0c0 -7.7319946 6.268013 -14.0 14.000004 -14.0l0 0c3.713028 0 7.273979 1.4749908 9.89949 4.100502c2.6255112 2.6255112 4.1005096 6.18647 4.1005096 9.899498l0 0c0 7.7319794 -6.268013 14.0 -14.0 14.0l0 0c-7.731991 0 -14.000004 -6.2680206 -14.000004 -14.0z" fill-rule="evenodd"/><path fill="#cfe2f3" d="m112.04462 137.46194l0 0c0 -7.7319946 6.268013 -14.0 14.0 -14.0l0 0c3.713028 0 7.273987 1.4749908 9.89949 4.100502c2.6255188 2.6255112 4.1005096 6.18647 4.1005096 9.899498l0 0c0 7.7319794 -6.2680054 14.0 -14.0 14.0l0 0c-7.731987 0 -14.0 -6.2680206 -14.0 -14.0z" fill-rule="evenodd"/><path stroke="#6fa8dc" stroke-width="4.0" stroke-linejoin="round" stroke-linecap="butt" d="m112.04462 137.46194l0 0c0 -7.7319946 6.268013 -14.0 14.0 -14.0l0 0c3.713028 0 7.273987 1.4749908 9.89949 4.100502c2.6255188 2.6255112 4.1005096 6.18647 4.1005096 9.899498l0 0c0 7.7319794 -6.2680054 14.0 -14.0 14.0l0 0c-7.731987 0 -14.0 -6.2680206 -14.0 -14.0z" fill-rule="evenodd"/><path fill="#6fa8dc" d="m67.01312 137.46194l0 0c0 -2.4526672 1.9882812 -4.4409485 4.4409485 -4.4409485l0 0c1.1778107 0 2.3073807 0.46788025 3.1402206 1.3007202c0.83283997 0.83283997 1.3007202 1.9624176 1.3007202 3.1402283l0 0c0 2.4526672 -1.9882812 4.4409485 -4.440941 4.4409485l0 0c-2.4526672 0 -4.4409485 -1.9882812 -4.4409485 -4.4409485z" fill-rule="evenodd"/><path stroke="#6fa8dc" stroke-width="4.0" stroke-linejoin="round" stroke-linecap="butt" d="m67.01312 137.46194l0 0c0 -2.4526672 1.9882812 -4.4409485 4.4409485 -4.4409485l0 0c1.1778107 0 2.3073807 0.46788025 3.1402206 1.3007202c0.83283997 0.83283997 1.3007202 1.9624176 1.3007202 3.1402283l0 0c0 2.4526672 -1.9882812 4.4409485 -4.440941 4.4409485l0 0c-2.4526672 0 -4.4409485 -1.9882812 -4.4409485 -4.4409485z" fill-rule="evenodd"/><path fill="#6fa8dc" d="m121.603676 137.46194l0 0c0 -2.4526672 1.9882812 -4.4409485 4.440941 -4.4409485l0 0c1.1778183 0 2.3073883 0.46788025 3.1402283 1.3007202c0.83283997 0.83283997 1.3007202 1.9624176 1.3007202 3.1402283l0 0c0 2.4526672 -1.9882812 4.4409485 -4.4409485 4.4409485l0 0c-2.4526596 0 -4.440941 -1.9882812 -4.440941 -4.4409485z" fill-rule="evenodd"/><path stroke="#6fa8dc" stroke-width="4.0" stroke-linejoin="round" stroke-linecap="butt" d="m121.603676 137.46194l0 0c0 -2.4526672 1.9882812 -4.4409485 4.440941 -4.4409485l0 0c1.1778183 0 2.3073883 0.46788025 3.1402283 1.3007202c0.83283997 0.83283997 1.3007202 1.9624176 1.3007202 3.1402283l0 0c0 2.4526672 -1.9882812 4.4409485 -4.4409485 4.4409485l0 0c-2.4526596 0 -4.440941 -1.9882812 -4.440941 -4.4409485z" fill-rule="evenodd"/></g></svg>